<svg width="495" height="218" viewBox="0 0 495 218" xmlns="http://www.w3.org/2000/svg" role="img" aria-label="Most Used Languages">
<style>text{font-family:-apple-system,BlinkMacSystemFont,'Segoe UI',Helvetica,Arial,sans-serif}.h{fill:#0EA5E9;font-weight:600}.m{fill:#8B949E;font-size:12px}.d{fill:#6E7681;font-size:11px}.b{fill:#C9D1D9;font-size:13.5px}.v{fill:#C9D1D9;font-size:13.5px;font-weight:700}</style>
<rect x="0.5" y="0.5" width="494" height="217" rx="10" fill="#0D1117" stroke="#30363D"/>
<text x="25" y="30" class="h" font-size="17">Most Used Languages</text>
<text x="25" y="48" class="d">Updated 18 Sep 2026 · by bytes of code</text>
<text x="25" y="78" class="b">TypeScript</text>
<text x="455" y="78" class="m" text-anchor="end">83.6%</text>
<rect x="25" y="85" width="430" height="7" rx="3.5" fill="#30363D"/>
<rect x="25" y="85" width="359" height="7" rx="3.5" fill="#3178C6"/>
<text x="25" y="104" class="b">Wolfram Language</text>
<text x="455" y="104" class="m" text-anchor="end">8.0%</text>
<rect x="25" y="111" width="430" height="7" rx="3.5" fill="#30363D"/>
<rect x="25" y="111" width="34" height="7" rx="3.5" fill="#8B949E"/>
<text x="25" y="130" class="b">C#</text>
<text x="455" y="130" class="m" text-anchor="end">4.0%</text>
<rect x="25" y="137" width="430" height="7" rx="3.5" fill="#30363D"/>
<rect x="25" y="137" width="17" height="7" rx="3.5" fill="#178600"/>
<text x="25" y="156" class="b">Python</text>
<text x="455" y="156" class="m" text-anchor="end">2.8%</text>
<rect x="25" y="163" width="430" height="7" rx="3.5" fill="#30363D"/>
<rect x="25" y="163" width="11" height="7" rx="3.5" fill="#3572A5"/>
<text x="25" y="182" class="b">CSS</text>
<text x="455" y="182" class="m" text-anchor="end">1.1%</text>
<rect x="25" y="189" width="430" height="7" rx="3.5" fill="#30363D"/>
<rect x="25" y="189" width="4" height="7" rx="3.5" fill="#563D7C"/>
</svg>